<svg viewBox="0 0 750 471" xmlns="http://www.w3.org/2000/svg">
  <rect width="750" height="471" rx="40" fill="#016FD0"/>
  <path d="M278.2 334.1H208.8L250.5 138.4H320L278.2 334.1Z" fill="white"/>
  <path d="M466.1 142.9C457.7 139.3 443.1 135.3 424.6 135.3C374.7 135.3 339.6 161.4 339.3 197.4C339 224.2 364.9 238.6 384.3 247.5C404.1 256.5 411.1 262.3 411 270.4C410.9 282.2 395.6 287.6 381.3 287.6C360.9 287.6 349.8 284.4 332.7 277.3L326.2 274.4L319.3 315.2C330.7 320 352.1 324.2 373.9 324.5C426.8 324.5 461.2 298.7 461.8 260.4C462 239.2 447.8 223.3 418.2 209.7C400.1 201.2 389 195.7 389.1 186.9C389.2 179.1 398.8 170.9 418.9 170.9C435.1 170.5 447 174.5 456.3 178.6L460.9 181.1L467.8 142.9H466.1Z" fill="white"/>
  <path d="M627.7 138.4H570L513 334.1H570.9L580.7 309.5H649.1L653.5 334.1H705.7L663.7 138.4H627.7ZM598.4 271.6C603.8 257.6 622.1 207.3 622.1 207.3C621.8 207.9 627.2 193.1 630.2 183.7L634 202.2C634 202.2 646.1 259.6 648.6 271.6H598.4Z" fill="white"/>
  <path d="M133.7 138.4L46.9 271.6L41.6 244.9C33.5 219.6 7.9 191.6 -20.5 177.2L56.5 334H113.1L217.7 138.4H133.7Z" fill="white"/>
  <path d="M93.2 138.4H-7.3L-8 142.6C51.5 158.2 90.6 192.5 103.7 253L85.1 151.5C83 140.8 75.4 138.7 75.2 138.4H93.2Z" fill="#F2AE14"/>
</svg> 