<svg viewBox="0 0 750 471" xmlns="http://www.w3.org/2000/svg">
  <rect width="750" height="471" rx="40" fill="#F2F2F2"/>
  <path d="M319.8 159.8C316.2 179.9 303.7 179.9 291.7 179.9H283.3L290.4 134.7C290.8 132.3 292.9 130.5 295.3 130.5H299.2C307.6 130.5 315.6 130.5 319.8 135.2C322.1 138 323.2 142.4 322.1 147.9C322.1 148.7 321.7 155.2 319.8 159.8ZM281.4 328.6H244.9L251.8 285.6C252.2 283.2 254.3 281.4 256.7 281.4H271.9C279.2 281.4 285.6 281.4 290.8 283.4C295.3 285.2 297.9 288.8 298.6 294.3C299.4 297.7 299.4 300.3 298.6 302.5C297.9 304.8 296 306.8 294.3 308.2C291.3 312.3 286 315.2 278.1 316.6C274.8 317.5 271.1 318 267.1 318.2C264.1 318.2 260.7 318.2 257.1 318.2H255.1C253.2 318.2 251.8 318.9 251.1 320.2L251.1 320.5L246.7 348.2C246.7 350 248.2 351.6 250.2 351.6H273.4C276.3 351.6 278.6 349.4 279.2 346.7L279.4 345.6L283.7 319.1L284.1 317.7C284.5 314.8 286.8 312.5 289.5 312.5H292.1C317.9 312.5 338.3 300.5 343.7 270.4C346.1 256.9 344.4 245.8 337.9 238.2C335.6 235.2 332.8 232.6 329.5 230.8L281.4 328.6ZM367.6 238.2H331.3C329 238.2 326.9 239.9 326.4 242.3L313.1 327.7C313.1 329.5 314.4 331.1 316.5 331.1H334.9C338.3 331.1 341.1 328.4 341.9 325.2L345.8 300.3C346.3 297.9 348.4 296.1 350.8 296.1H362.4C388.2 296.1 404.1 284.1 408.7 260.4C410.9 250 409.1 241.4 404.1 235.4C398.2 228.9 389 238.2 367.6 238.2ZM371.5 263.3C369.3 277.5 358.1 277.5 347.7 277.5H342.4L347.7 242.5C348 240.1 350.1 238.3 352.5 238.3H355.5C362.6 238.3 369.3 238.3 372.8 242C374.6 244.2 375.4 247.6 371.5 263.3ZM494.3 238.2H458C455.7 238.2 453.6 239.9 453.1 242.3L439.8 327.7C439.8 329.5 441.1 331.1 443.2 331.1H461C463.3 331.1 465.4 329.4 465.9 327L469.8 301.2C470.3 298.8 472.4 297 474.8 297H486.4C512.2 297 528.1 285 532.7 261.3C534.9 250.9 533.1 242.3 528.1 236.3C522.2 235.4 508.7 238.2 494.3 238.2ZM498.1 263.3C496 277.5 484.7 277.5 474.3 277.5H469L474.3 242.5C474.7 240.1 476.8 238.3 479.2 238.3H482.1C489.3 238.3 496 238.3 499.5 242C501.2 244.2 502.9 247.6 498.1 263.3ZM422.2 303.3L431.9 246.1C432.3 243.7 434.4 241.9 436.8 241.9H473.5C479.2 241.9 484.3 242.3 488.9 243.5C491.4 242.3 493.9 241.5 496.4 240.7C510.5 235.9 522.2 236.3 531.4 241.9C541.8 248.4 547.1 259.6 545.6 273.8C539.8 303.9 517.1 324 483.9 324H463.1C460.8 324 458.9 325.9 458.5 328.1L452.4 367.2C452.4 369 450.7 370.6 448.6 370.6H431.4C429.1 370.6 427.9 369 428.3 366.8L434.8 326.7C434.8 324.7 436.4 323.3 438.6 323.3H455.7C493.9 323.3 524.8 308.5 532 268.1C534.9 251 529.8 239.1 518.5 231.7C507.1 224.3 489.3 222.1 468.5 224.7C468.1 224.7 467.6 224.7 467.2 224.9H423.9C421.4 224.9 419.3 226.7 418.9 229.1L403.4 332.1C403.4 334.7 405.1 336.7 407.4 336.7H424.8C427.9 336.7 429.9 334.1 430.3 331.1L434.4 304.7C434.5 302.1 436.6 300.3 439.1 300.3H450.7C499 300.3 531 282.3 538.9 232.8C540.3 223.4 539.8 215.6 536.8 209C536.8 206 536.8 203.3 536.8 200.6C541.8 207.1 544.8 215.6 545.6 225.6C545.6 228.7 545.6 231.9 545.2 235C544.4 258.7 534.9 278.7 518.9 292.8C505.4 304.7 487.6 311.6 466.7 312.8C463.3 313.2 459.9 313.2 456.6 313.2H439.1C436.8 313.2 434.8 314.7 434.4 316.9L428.3 356C427.9 357.9 429.4 359.7 431.4 359.7H448.6C450.7 359.7 452.4 358.1 452.4 356.4L458.5 317.3C459 315.1 460.8 313.2 463.1 313.2H483.9C527.7 313.2 556.5 284.9 562.9 242.7C566.2 222.1 559.1 204.9 545.2 195.3C534.4 187.5 522.2 183.3 504.4 183.3H466.7C464.1 183.3 462.2 184.9 461.8 187.1L444.8 292.7C444.4 294.9 442.4 296.5 440.2 296.5H422.6C420.1 296.7 418.5 298.6 419 300.7L422.2 303.3Z" fill="#003087"/>
</svg> 