<svg viewBox="0 0 750 471" xmlns="http://www.w3.org/2000/svg">
  <rect width="750" height="471" rx="40" fill="#0E4595"/>
  <path d="M278.2 334.2H240.1L261.1 138.4H299.2L278.2 334.2Z" fill="white"/>
  <path d="M528 142.9C518.7 139.3 504.1 135.3 486.2 135.3C438.1 135.3 404.1 161.4 403.8 197.4C403.5 224.2 428.7 238.6 447.3 247.5C466.4 256.5 473.2 262.3 473.1 270.4C473 282.2 458.2 287.6 444.5 287.6C424.9 287.6 414.2 284.4 397.7 277.3L391.4 274.4L384.7 315.2C395.6 320 415.9 324.2 437 324.5C488.2 324.5 521.5 298.7 522 260.4C522.2 239.2 508.5 223.3 479.8 209.7C462.2 201.2 451.5 195.7 451.6 186.9C451.7 179.1 461 170.9 480.4 170.9C496.1 170.5 507.5 174.5 516.5 178.6L521 181.1L527.6 142.9H528Z" fill="white"/>
  <path d="M661.7 138.4H632.8C622.7 138.4 615.4 141.3 611.2 151.4L524.3 334.1H575.4C575.4 334.1 585.8 309.5 588.1 303.8C595.6 303.8 653.2 303.8 662.6 303.8C664.5 311.3 670.1 334.1 670.1 334.1H716L661.7 138.4ZM605.6 268.8C610.4 256.7 628.7 211.9 628.7 211.9C628.4 212.5 633.8 199.3 636.7 190.6L640.4 210.2C640.4 210.2 652.2 258.5 654.6 268.7L605.6 268.8Z" fill="white"/>
  <path d="M211.2 138.4L163.6 271.6L159.5 253C151.5 227.7 126.1 199.7 97.9 185.3L142.2 334H193.7L266.9 138.4H211.2Z" fill="white"/>
  <path d="M131.4 138.4H50.7L50 142.6C108.3 158.2 146.6 192.5 159.5 253L141.1 151.5C139 140.8 131.5 138.7 131.4 138.4Z" fill="#F2AE14"/>
</svg> 